<?xml version="1.0" encoding="utf-8"?>
<!-- Generator: Adobe Illustrator 25.0.1, SVG Export Plug-In . SVG Version: 6.00 Build 0)  -->
<svg version="1.0" id="katman_1" xmlns="http://www.w3.org/2000/svg" xmlns:xlink="http://www.w3.org/1999/xlink" x="0px" y="0px"
	 viewBox="0 0 75 75" style="enable-background:new 0 0 75 75;" xml:space="preserve">
<style type="text/css">
	.st0{fill:#0080FF;}
</style>
<g id="f000000ff">
</g>
<g id="ff4655ff">
<path d="M32.7878 39.6613L35.976 47.462H41.0462L43.2317 39.6613H32.7878Z" fill="#0080FF"/>
<path d="M27.6302 32.493C25.7584 27.8547 23.5781 21.7766 24.1798 21.3241C24.4729 21.103 25.6402 22.1674 27.4965 25.4893C27.7073 25.8647 27.6662 25.335 27.6662 25.0985C27.6662 22.6405 27.6662 7.59438 27.6662 7.59438C27.6662 7.59438 20.9967 7.59438 20.318 7.59438C19.9426 7.59438 19.8552 7.59952 19.7832 7.68179C19.7163 7.75893 19.7369 7.91834 19.8243 8.17545C22.2103 15.2357 23.1976 19.3186 22.6885 19.5757C22.3183 19.766 21.151 17.9045 19.1455 13.6622C16.0808 7.17271 14.2604 3.58859 13.9725 3.80971C13.6074 4.09253 15.7825 10.6694 21.0996 25.4481C22.8685 30.3589 23.429 32.7758 23.0588 32.9918C22.7348 33.182 21.7012 31.6496 20.1997 28.5695C18.4925 25.0625 17.6697 23.6586 17.464 23.7306C17.2172 23.8129 17.86 26.0395 18.909 29.2997C20.5597 34.4419 23.321 43.271 22.74 43.6053C22.4314 43.7853 21.6601 42.3866 19.8603 38.4682C19.4849 37.6506 19.2792 37.2444 19.1815 37.2444C19.125 37.2444 19.1044 37.3781 19.1044 37.6352C19.1044 38.098 19.1044 43.3842 19.1044 43.3842L17.1092 47.4619H26.2984C23.9227 40.5765 23.2387 37.5169 23.6141 37.3266C24.0718 37.0952 26.0824 41.0393 28.5558 47.4619C30.9058 48.6241 33.9654 51.3855 35.6572 53.067C36.0634 53.4681 36.1971 53.4475 36.0377 53.0464C34.0528 48.2179 31.3223 41.641 27.6302 32.493Z" fill="#0080FF"/>

</g>
</svg>
